<?xml version="1.0" standalone="no"?>
<!DOCTYPE svg PUBLIC "-//W3C//DTD SVG 20010904//EN"
 "http://www.w3.org/TR/2001/REC-SVG-20010904/DTD/svg10.dtd">
<svg version="1.0" xmlns="http://www.w3.org/2000/svg"
 width="2550.000000pt" height="2550.000000pt" viewBox="0 0 2550.000000 2550.000000"
 preserveAspectRatio="xMidYMid meet">
<metadata>
Created by potrace 1.11, written by Peter Selinger 2001-2013
</metadata>
<g transform="translate(0.000000,2550.000000) scale(0.100000,-0.100000)"
fill="#000000" stroke="none">
<path d="M0 12750 l0 -12750 2080 0 2080 0 0 1075 0 1075 45 0 45 0 0 2031 0
2030 62 -2 c54 -2 63 0 63 15 0 12 -16 23 -53 36 -122 43 -236 153 -289 279
l-28 66 -3 840 c-2 818 -2 841 18 906 51 168 197 302 370 339 40 8 251 10 760
8 697 -3 706 -3 763 -25 130 -49 240 -155 294 -282 l28 -66 3 -825 c2 -599 0
-840 -8 -880 -34 -161 -162 -308 -314 -360 -71 -24 -75 -50 -9 -50 94 0 420
45 593 81 209 44 376 110 419 165 l21 27 0 2312 0 2312 137 61 c679 300 1371
477 2178 558 133 13 319 18 855 23 l685 6 3 487 2 486 -111 109 c-821 799
-1355 1987 -1493 3323 -9 80 -18 204 -22 275 l-6 130 60 -90 c68 -102 183
-217 258 -257 74 -40 144 -55 318 -69 193 -15 584 -7 756 15 1015 132 1751
654 1895 1343 8 40 18 123 21 185 6 95 11 119 32 153 138 225 441 261 608 71
l46 -52 3 -139 c4 -195 36 -332 116 -502 83 -175 243 -374 414 -513 348 -283
831 -474 1385 -546 172 -22 563 -30 756 -15 246 20 315 45 442 165 145 138
256 347 326 617 l24 93 7 -78 c9 -95 -9 -555 -30 -766 -126 -1259 -600 -2380
-1350 -3194 -62 -68 -149 -155 -194 -196 l-81 -73 0 -471 c0 -259 4 -476 8
-483 5 -8 157 -12 552 -16 626 -6 817 -20 1255 -93 1635 -274 3042 -1100 3814
-2239 295 -435 497 -916 586 -1396 53 -285 49 8 52 -4167 l3 -3852 2125 0
2125 0 0 12750 0 12750 -12750 0 -12750 0 0 -12750z m11966 8410 c38 -55 74
-100 79 -100 6 0 66 20 134 45 68 25 132 45 142 45 10 0 263 -74 562 -165 299
-91 548 -165 554 -165 6 0 112 45 235 101 257 116 607 267 690 297 l56 21 29
-21 c15 -12 233 -225 483 -473 468 -465 581 -569 653 -603 23 -11 52 -31 64
-44 84 -89 386 -688 638 -1262 13 -30 13 -30 15 -6 2 30 23 -27 74 -197 l34
-113 -107 0 c-74 0 -132 6 -184 19 -115 30 -352 68 -547 88 -248 25 -1046 25
-1365 0 -121 -10 -230 -20 -242 -22 -19 -5 -23 -1 -23 20 l0 25 -1115 0 -1115
0 0 -25 c0 -23 -3 -25 -37 -20 -244 35 -1069 56 -1398 36 -326 -21 -629 -64
-808 -116 l-78 -23 7 31 c24 114 100 305 244 615 l164 352 132 164 c253 315
354 423 669 716 209 194 342 328 421 420 90 106 153 168 297 287 l182 153 60
1 c53 1 254 13 311 17 15 2 37 -22 90 -98z m-6621 -8397 c70 -23 155 -109 181
-183 18 -51 19 -87 19 -475 0 -409 -1 -421 -22 -467 -30 -66 -96 -133 -162
-165 -46 -23 -69 -28 -131 -27 -98 0 -162 28 -228 98 -88 92 -87 89 -87 576 0
414 1 426 22 472 28 61 94 132 148 158 85 41 159 45 260 13z"/>
<path d="M5139 12394 c-56 -17 -141 -90 -172 -148 -32 -59 -31 -193 1 -253 56
-105 132 -155 249 -161 60 -3 80 0 125 20 72 33 109 67 142 128 38 69 45 156
21 231 -26 76 -112 161 -185 183 -65 19 -119 19 -181 0z"/>
<path d="M14835 12587 c-126 -118 -161 -140 -585 -365 -150 -80 -372 -167
-566 -221 -236 -66 -296 -77 -547 -97 -340 -27 -642 -4 -952 75 -341 86 -699
252 -1005 464 -74 52 -137 93 -139 91 -1 -1 27 -56 64 -121 l68 -118 286 -181
286 -181 275 -42 c151 -23 412 -64 580 -91 409 -66 510 -68 720 -15 80 20 218
50 307 66 212 37 351 81 575 183 101 45 239 106 308 135 l125 52 77 88 c67 77
257 375 246 386 -2 2 -57 -47 -123 -108z"/>
<path d="M10779 11732 c-51 -42 -15 -122 55 -122 48 0 76 25 76 66 0 66 -77
99 -131 56z"/>
<path d="M14980 11723 c-42 -15 -53 -78 -19 -109 31 -28 96 -25 120 5 50 62
-19 133 -101 104z"/>
<path d="M14906 11447 c-50 -51 -21 -117 52 -117 101 0 110 120 10 136 -30 5
-41 2 -62 -19z"/>
<path d="M10840 11390 c-11 -11 -20 -33 -20 -50 0 -68 96 -98 139 -44 27 35
26 59 -4 89 -31 32 -86 34 -115 5z"/>
<path d="M14825 11115 c-41 -40 -29 -95 25 -113 36 -13 86 1 100 28 42 78 -62
149 -125 85z"/>
<path d="M10921 11054 c-27 -35 -26 -59 4 -89 16 -17 35 -25 60 -25 25 0 44 8
60 25 30 30 31 54 4 89 -16 21 -29 26 -64 26 -35 0 -48 -5 -64 -26z"/>
<path d="M14736 10859 c-73 -57 15 -167 92 -113 36 25 46 51 31 86 -20 49 -78
62 -123 27z"/>
<path d="M11032 10804 c-51 -36 -13 -124 54 -124 70 0 110 74 64 120 -24 24
-86 27 -118 4z"/>
<path d="M14575 10465 c-62 -61 5 -146 88 -111 57 23 64 100 12 124 -40 19
-74 14 -100 -13z"/>
<path d="M11195 10415 c-31 -30 -32 -56 -1 -91 33 -39 89 -39 123 0 64 74 -53
161 -122 91z"/>
<path d="M14386 10159 c-19 -15 -26 -30 -26 -53 0 -39 23 -63 68 -72 26 -5 36
-1 62 24 36 37 38 65 5 97 -30 31 -73 32 -109 4z"/>
<path d="M11400 10110 c-68 -68 37 -159 114 -99 55 43 21 119 -54 119 -27 0
-47 -7 -60 -20z"/>
<path d="M14180 9890 c-29 -29 -26 -74 6 -99 36 -28 79 -27 109 4 50 49 19
115 -55 115 -27 0 -47 -7 -60 -20z"/>
<path d="M11602 9847 c-29 -30 -28 -62 3 -92 67 -68 183 14 125 88 -29 36 -96
38 -128 4z"/>
<path d="M13980 9697 c-36 -18 -54 -60 -39 -89 25 -46 67 -60 112 -36 65 34
61 102 -7 128 -34 13 -35 12 -66 -3z"/>
<path d="M11835 9645 c-50 -50 -15 -115 62 -115 33 0 46 5 63 27 58 74 -58
156 -125 88z"/>
<path d="M13743 9490 c-42 -17 -58 -84 -25 -112 44 -38 126 -22 138 27 16 64
-47 111 -113 85z"/>
<path d="M12084 9447 c-52 -45 -16 -127 57 -127 18 0 39 9 54 25 39 38 32 86
-16 110 -39 21 -64 19 -95 -8z"/>
<path d="M13355 9315 c-31 -30 -32 -65 -2 -93 23 -22 68 -29 102 -16 26 11 46
59 35 88 -19 51 -94 63 -135 21z"/>
<path d="M12451 9299 c-17 -16 -21 -30 -19 -57 2 -30 9 -40 36 -54 84 -42 161
44 97 107 -31 32 -82 33 -114 4z"/>
<path d="M12685 7309 c-124 -11 -307 -42 -353 -60 -13 -5 -36 -9 -52 -9 -17 0
-30 -4 -30 -9 0 -5 -39 -21 -87 -36 -49 -15 -92 -31 -98 -35 -5 -4 -23 -10
-40 -14 -44 -11 -155 -65 -155 -77 0 -5 -7 -9 -15 -9 -8 0 -34 -11 -57 -24
-24 -13 -70 -38 -103 -56 -33 -18 -70 -43 -82 -56 -13 -13 -39 -31 -58 -40
-19 -9 -59 -38 -87 -65 -29 -27 -56 -49 -60 -49 -9 0 -231 -220 -263 -260 -11
-14 -38 -48 -61 -75 -49 -59 -67 -92 -59 -105 10 -17 33 1 56 46 13 24 29 44
36 44 6 0 13 4 15 10 5 17 103 139 111 139 10 1 97 88 98 98 0 5 30 31 66 58
36 28 78 62 93 76 15 14 63 49 106 78 44 28 86 57 94 64 29 25 254 137 275
137 8 0 18 6 22 13 4 6 24 18 43 25 73 28 186 65 225 73 142 30 201 44 205 50
3 3 48 12 100 20 183 27 733 12 760 -20 3 -4 41 -14 85 -24 138 -30 158 -35
235 -61 114 -37 144 -50 153 -63 4 -7 14 -13 21 -13 12 0 148 -62 201 -92 11
-7 32 -18 48 -26 15 -7 27 -17 27 -22 0 -4 16 -15 35 -24 43 -21 154 -104 257
-193 27 -24 53 -43 58 -43 6 0 10 -5 10 -10 0 -6 36 -46 80 -90 44 -44 92 -97
107 -118 15 -20 30 -39 33 -42 4 -3 19 -23 35 -45 36 -48 47 -57 58 -46 12 12
-14 59 -67 116 -25 27 -46 53 -46 57 0 10 -236 248 -246 248 -5 0 -35 25 -67
55 -31 30 -75 64 -97 75 -21 11 -48 29 -59 41 -22 24 -176 112 -227 131 -19 7
-34 15 -34 19 0 9 -90 52 -145 70 -22 7 -44 16 -50 20 -5 4 -50 19 -100 34
-49 16 -92 31 -95 35 -3 4 -18 10 -35 13 -16 3 -50 11 -75 17 -208 49 -514 70
-745 49z"/>
<path d="M12740 7070 c-44 -41 -39 -78 15 -105 45 -23 64 -42 65 -67 0 -16
-17 -22 -89 -31 -27 -4 -22 -24 7 -30 37 -8 99 7 123 29 22 20 25 69 5 89 -8
8 -32 20 -55 27 -40 12 -59 37 -46 58 3 5 26 10 51 10 47 0 54 9 28 34 -25 25
-68 19 -104 -14z"/>
<path d="M13150 7044 c-6 -14 -10 -45 -10 -69 0 -23 -7 -56 -15 -71 -8 -16
-15 -41 -15 -56 0 -23 4 -28 24 -28 19 0 25 7 34 43 6 23 13 71 15 107 3 36 8
73 12 83 5 13 2 17 -14 17 -14 0 -25 -9 -31 -26z"/>
<path d="M12321 7013 c-46 -6 -67 -28 -53 -56 5 -12 15 -42 22 -67 6 -25 16
-59 21 -76 5 -17 9 -38 9 -47 0 -11 8 -17 21 -17 19 0 21 4 15 43 -4 23 -9 61
-12 85 -3 23 -10 42 -15 42 -5 0 -9 11 -9 25 0 21 5 25 30 25 28 0 30 -3 30
-35 0 -19 -4 -35 -10 -35 -5 0 -10 -7 -10 -15 0 -18 43 -65 60 -65 5 0 10 -6
10 -14 0 -15 27 -25 48 -19 20 7 14 21 -23 59 -39 39 -39 38 -24 65 18 35 1
79 -37 95 -18 8 -35 13 -36 12 -2 0 -18 -3 -37 -5z"/>
<path d="M13471 6963 c-26 -94 -34 -118 -42 -135 -5 -10 -9 -29 -9 -42 0 -20
8 -26 49 -40 28 -9 55 -16 61 -16 20 0 5 23 -26 41 -24 14 -29 22 -26 50 1 19
6 43 11 54 15 35 31 91 31 107 0 12 -19 28 -34 28 -1 0 -8 -21 -15 -47z"/>
<path d="M11946 6862 c-8 -13 20 -78 50 -117 15 -20 24 -45 24 -68 0 -31 -4
-38 -25 -43 -14 -3 -31 -4 -38 -1 -8 3 -35 45 -60 94 -26 48 -46 82 -47 76 0
-7 -7 -13 -15 -13 -22 0 -18 -27 10 -64 14 -18 25 -38 25 -44 0 -7 4 -12 9
-12 5 0 12 -11 15 -25 8 -32 58 -58 95 -50 39 8 74 49 74 85 0 16 -9 49 -20
72 -12 24 -27 58 -35 76 -7 17 -16 32 -20 32 -3 0 -13 3 -21 6 -8 3 -18 1 -21
-4z"/>
<path d="M13870 6822 c0 -10 5 -23 11 -29 13 -13 -29 -103 -48 -103 -7 0 -13
-5 -13 -11 0 -18 -33 -46 -38 -31 -5 17 -29 15 -36 -4 -4 -9 -5 -17 -4 -18 59
-30 59 -30 86 -15 15 8 35 33 46 54 10 22 21 42 25 45 10 8 55 100 50 103 -55
33 -79 35 -79 9z"/>
<path d="M11540 6571 c0 -16 7 -36 15 -45 17 -17 21 -76 5 -76 -14 0 -60 46
-60 60 0 6 -10 10 -22 8 -28 -4 -26 -31 5 -63 87 -92 132 -135 138 -135 22 0
18 26 -10 60 -49 61 -41 72 34 45 53 -19 95 -19 95 0 0 8 -12 17 -27 21 -72
15 -95 30 -109 70 -8 21 -14 49 -14 62 0 17 -6 22 -25 22 -21 0 -25 -5 -25
-29z"/>
<path d="M14165 6583 c-81 -41 -110 -106 -80 -173 26 -58 96 -88 130 -57 33
29 45 37 53 37 5 0 15 14 22 30 7 17 16 30 21 30 5 0 9 18 9 40 0 41 -31 90
-57 90 -7 0 -13 4 -13 8 0 15 -53 11 -85 -5z m75 -43 c8 -11 20 -20 27 -20 7
0 13 -11 13 -25 0 -14 -5 -25 -11 -25 -6 0 -28 -18 -49 -40 -36 -38 -70 -52
-70 -30 0 6 -7 10 -15 10 -11 0 -15 11 -15 40 0 29 4 40 15 40 8 0 15 5 15 10
0 16 43 59 60 59 9 1 22 -8 30 -19z"/>
<path d="M4970 6306 c-177 -38 -341 -140 -445 -278 -320 -422 -125 -1020 385
-1180 63 -19 96 -23 210 -23 114 0 147 4 210 23 266 84 453 281 521 552 28
109 23 277 -11 385 -77 246 -280 444 -525 510 -82 23 -263 28 -345 11z"/>
<path d="M11131 6183 c-24 -20 -41 -49 -104 -171 -23 -46 -51 -100 -61 -120
-31 -60 -86 -221 -109 -317 -11 -49 -24 -92 -27 -95 -8 -6 -14 -41 -35 -180
-17 -110 -20 -406 -5 -530 15 -128 33 -230 41 -230 4 0 10 -15 14 -32 13 -63
54 -200 70 -230 8 -17 15 -37 15 -44 0 -22 50 -124 60 -124 6 0 10 -8 10 -18
0 -31 22 -42 87 -42 l63 0 -11 27 c-5 14 -16 31 -23 37 -7 6 -21 31 -30 56
-10 25 -23 59 -31 75 -14 34 -23 59 -56 165 -13 41 -26 77 -29 80 -9 7 -37
148 -52 255 -16 116 -16 457 1 555 25 148 42 225 52 228 5 2 9 12 9 23 0 26
36 143 61 197 10 23 19 49 19 56 0 17 40 97 56 111 6 6 17 26 24 45 8 19 26
54 42 77 15 23 28 46 28 50 0 5 10 20 22 33 15 16 18 25 10 28 -7 2 -18 9 -25
15 -13 13 -54 37 -61 37 -2 0 -13 -8 -25 -17z"/>
<path d="M14615 6187 c-11 -7 -22 -15 -25 -18 -3 -3 -13 -8 -22 -12 -23 -8
-23 -23 2 -44 11 -10 20 -21 20 -26 0 -5 14 -28 30 -52 17 -24 30 -46 30 -49
0 -13 51 -116 58 -116 8 0 32 -49 32 -67 0 -7 9 -32 20 -55 26 -59 80 -249 80
-286 0 -11 4 -22 9 -24 23 -8 45 -213 45 -413 0 -196 -23 -432 -43 -445 -5 -3
-14 -30 -20 -60 -6 -30 -21 -82 -32 -115 -10 -33 -24 -76 -30 -95 -6 -19 -19
-54 -30 -77 -10 -24 -19 -47 -19 -52 0 -5 -6 -16 -13 -23 -7 -7 -23 -33 -35
-58 l-22 -45 61 -3 c62 -3 89 8 89 34 0 18 21 57 36 66 6 4 16 26 24 50 7 24
19 58 27 76 24 55 75 242 88 320 4 23 10 42 14 42 13 0 31 224 31 389 0 161
-17 351 -31 351 -4 0 -12 30 -19 67 -27 160 -102 396 -134 428 -9 9 -16 21
-16 26 0 10 -79 175 -109 227 -16 28 -62 73 -73 71 -1 0 -12 -6 -23 -12z"/>
<path d="M11335 6060 c-3 -11 -11 -20 -16 -20 -5 0 -9 -6 -9 -13 0 -7 -9 -23
-20 -35 -11 -12 -20 -30 -20 -42 0 -11 -7 -20 -15 -20 -8 0 -15 -7 -15 -15 0
-9 -13 -41 -29 -73 -15 -31 -32 -68 -36 -82 -13 -45 -39 -100 -47 -100 -4 0
-8 -8 -8 -17 0 -10 -8 -38 -17 -63 -9 -25 -19 -63 -24 -85 -4 -22 -15 -74 -23
-115 -43 -206 -42 -530 3 -747 21 -100 61 -235 72 -243 3 -3 10 -16 13 -30 4
-14 16 -44 27 -67 10 -24 19 -47 19 -52 0 -11 59 -124 68 -131 4 -3 13 -17 19
-32 12 -27 16 -28 83 -28 38 0 70 4 70 8 0 15 -31 72 -39 72 -12 0 -93 170
-106 223 -4 15 -11 30 -16 33 -5 3 -9 14 -9 24 0 10 -5 20 -10 22 -13 4 -52
148 -76 283 -27 150 -24 490 5 635 39 189 58 260 70 260 4 0 14 19 22 43 35
108 93 221 136 265 7 7 13 20 13 28 0 8 4 14 8 14 8 0 36 51 30 54 -2 1 -16 8
-33 16 -16 8 -37 23 -46 32 -21 23 -36 23 -44 -2z"/>
<path d="M14430 6070 c0 -5 -5 -10 -10 -10 -6 0 -20 -9 -32 -20 -12 -11 -28
-20 -35 -20 -7 0 -13 -2 -13 -5 0 -11 24 -55 31 -55 4 0 10 -11 13 -25 4 -14
21 -42 39 -63 30 -34 55 -87 116 -241 11 -29 21 -59 21 -67 0 -7 4 -14 10 -16
10 -3 13 -16 52 -203 28 -136 30 -494 4 -630 -27 -140 -48 -225 -55 -225 -4 0
-13 -21 -21 -47 -7 -26 -19 -59 -27 -73 -7 -14 -13 -29 -13 -33 0 -20 -80
-187 -89 -187 -8 0 -51 -76 -51 -91 0 -5 32 -9 71 -9 l71 0 15 40 c9 22 19 40
24 40 7 0 59 97 59 112 0 5 9 27 19 51 11 23 27 68 36 100 9 31 20 57 24 57 9
0 46 146 65 260 33 190 29 485 -9 666 -8 38 -17 83 -20 99 -11 56 -29 110 -42
123 -7 7 -13 22 -13 33 0 11 -9 39 -20 61 -11 23 -20 46 -20 52 0 17 -63 146
-71 146 -5 0 -9 9 -9 20 0 11 -4 20 -10 20 -5 0 -10 9 -10 20 0 12 -9 30 -20
42 -11 12 -20 28 -20 35 0 7 -4 13 -9 13 -5 0 -13 9 -16 20 -6 20 -35 28 -35
10z"/>
<path d="M12370 5313 c2 -77 37 -263 51 -263 4 0 15 -26 24 -57 20 -67 92
-217 120 -251 11 -13 28 -33 38 -44 9 -12 17 -26 17 -31 0 -20 160 -168 166
-153 3 7 4 149 2 315 l-3 302 -25 19 c-14 11 -50 25 -80 32 -30 6 -59 17 -65
23 -5 6 -35 22 -65 35 -30 13 -73 36 -95 51 -57 38 -85 45 -85 22z"/>
<path d="M13353 5295 c-29 -19 -55 -35 -59 -35 -14 0 -114 -53 -114 -60 0 -4
-18 -10 -40 -13 -57 -7 -113 -39 -121 -68 -8 -28 -12 -603 -4 -611 6 -6 165
147 165 159 0 6 11 23 24 38 13 15 30 40 37 54 8 14 23 40 34 56 32 46 60 111
91 210 15 50 31 92 35 95 6 4 29 160 29 198 0 20 -23 14 -77 -23z"/>
<path d="M12723 4216 c-82 -82 -142 -149 -139 -155 10 -15 622 -15 631 -1 5 8
-193 213 -276 286 -39 35 -64 20 -216 -130z"/>
</g>
</svg>
